HIERARCHY
ROOT Hips
{
  OFFSET 74.0196 97.4445 -31.1285
  CHANNELS 6 Xposition Yposition Zposition Zrotation Xrotation Yrotation
  JOINT RightUpLeg
  {
    OFFSET -8.9458 -8.66707 0.101652
    CHANNELS 3 Zrotation Xrotation Yrotation
    JOINT RightLeg
    {
      OFFSET -2.94875e-013 -44.4227 1.3727
      CHANNELS 3 Zrotation Xrotation Yrotation
      JOINT RightFoot
      {
        OFFSET 0.253549 -42.0924 -1.46059
        CHANNELS 3 Zrotation Xrotation Yrotation
        JOINT RightToes
        {
          OFFSET 0.04 -4.41509 8.4991
          CHANNELS 3 Zrotation Xrotation Yrotation
          End Site
          {
            OFFSET -0.08 -0.137448 9.77979
          }
        }
      }
    }
  }
  JOINT Spine
  {
    OFFSET -5.68434e-014 11.8905 -6.39488e-014
    CHANNELS 3 Zrotation Xrotation Yrotation
    JOINT Spine1
    {
      OFFSET 5.68434e-014 25.6574 0.127663
      CHANNELS 3 Zrotation Xrotation Yrotation
      JOINT HEad
      {
        OFFSET 4.26326e-014 8.73416 0.011341
        CHANNELS 3 Zrotation Xrotation Yrotation
        End Site
        {
          OFFSET -0.29 12.7742 2.51395
        }
      }
      JOINT LeftShoulder1
      {
        OFFSET 8.99 -0.362252 -0.22
        CHANNELS 3 Zrotation Xrotation Yrotation
        JOINT LeftArm
        {
          OFFSET 10.2827 -0.00338 0.322123
          CHANNELS 3 Zrotation Xrotation Yrotation
          JOINT LeftForeArm
          {
            OFFSET 32.7669 0.099144 -1.42434
            CHANNELS 3 Zrotation Xrotation Yrotation
            JOINT LeftHand
            {
              OFFSET 27.5643 0.085362 1.02216
              CHANNELS 3 Zrotation Xrotation Yrotation
              End Site
              {
                OFFSET 16.7443 -0.6 1.50291
              }
            }
          }
        }
      }
      JOINT RightShoulder
      {
        OFFSET -8.99 -0.362252 -0.22
        CHANNELS 3 Zrotation Xrotation Yrotation
        JOINT RightArm
        {
          OFFSET -10.2827 -0.00338 0.322123
          CHANNELS 3 Zrotation Xrotation Yrotation
          JOINT RightForeArm
          {
            OFFSET -32.8971 0.099144 -1.42434
            CHANNELS 3 Zrotation Xrotation Yrotation
            JOINT RightHand
            {
              OFFSET -27.4921 0.085362 1.02216
              CHANNELS 3 Zrotation Xrotation Yrotation
              End Site
              {
                OFFSET -16.6312 -0.6 1.50291
              }
            }
          }
        }
      }
    }
  }
  JOINT LeftUpLeg
  {
    OFFSET 8.9458 -8.66707 0.101652
    CHANNELS 3 Zrotation Xrotation Yrotation
    JOINT LeftLeg
    {
      OFFSET 7.10543e-014 -44.4227 1.3727
      CHANNELS 3 Zrotation Xrotation Yrotation
      JOINT LeftFoot
      {
        OFFSET -0.253549 -42.0924 -1.46059
        CHANNELS 3 Zrotation Xrotation Yrotation
        JOINT LeftToes
        {
          OFFSET -0.04 -4.41509 8.4991
          CHANNELS 3 Zrotation Xrotation Yrotation
          End Site
          {
            OFFSET 0.08 -0.047448 9.77979
          }
        }
      }
    }
  }
}
MOTION
Frames:	9
Frame Time:	0.0166667
-74.9811 71.857 -17.5013 7.86026 3.71567 137.362 -30.4615 -27.8039 7.54399 -3.77472 46.2324 8.28452 22.6386 35.4448 -8.54178 -89.0228 -77.4446 -70.4246 5.56717 10.5137 -0.847709 6.10288 20.776 -1.37242 7.08723 -7.94503 -37.0172 -5.03302e-021 -3.88251e-019 1.21329e-020 -66.756 -43.4785 -56.8977 -15.5394 41.4323 -119.329 6.54677 9.62745 -1.04006 5.62756 0.187316 -1.27656 45.4028 -39.9678 38.1291 -21.3417 9.00453 76.2541 -9.49204 11.5939 -26.5381 32.4589 -26.6886 -2.7646 -26.8906 78.4555 29.4065 -12.2582 25.0423 3.33444 63.6757 -57.3119 48.6827 
-74.3036 72.3145 -18.8161 7.50957 3.84967 138.402 -31.6272 -26.1383 7.92422 -1.74518 46.2097 6.27188 20.7858 34.2653 -7.60252 -84.9071 -75.9035 -67.3282 5.76572 10.2029 -1.39186 6.2582 20.127 -2.40955 5.54998 -7.94766 -35.8061 -5.03302e-021 -3.88251e-019 1.21329e-020 -64.446 -42.1445 -55.153 -15.4529 41.3968 -119.283 6.54677 9.62745 -1.04006 10.0256 -0.27077 -4.90648 57.9084 -48.229 43.2254 -21.4482 20.6304 94.6775 -11.7015 11.964 -25.9455 32.6502 -26.2756 -3.37343 -28.7184 77.8157 27.7247 -14.7713 25.6443 4.13376 63.9554 -57.7468 48.5356 
-74.0617 73.2045 -20.3121 6.88459 4.06285 139.089 -33.1286 -24.1801 8.43861 0.216809 44.6022 4.79139 18.666 32.4294 -6.50371 -73.4313 -73 -57.7168 5.75767 9.89555 -1.74944 6.25912 19.5053 -3.11843 4.10834 -7.69387 -34.4062 -5.03302e-021 -3.88251e-019 1.21329e-020 -62.6719 -39.6149 -53.4182 -15.3714 41.2801 -119.056 6.54677 9.62745 -1.04006 14.4296 -1.05734 -8.78209 68.6349 -54.7197 48.2793 -23.2815 30.749 111.11 -13.8452 12.216 -24.6306 33.0259 -26.1899 -3.18388 -31.7415 76.9287 26.3864 -18.1316 27.0017 5.33718 64.0039 -59.2048 47.0919 
-74.2437 74.4508 -21.9871 6.03366 4.29424 139.237 -34.7547 -22.179 9.21967 1.70682 41.6184 3.93262 16.513 30.1844 -5.41291 -59.3361 -68.0797 -46.2234 5.54722 9.59814 -1.90621 6.13878 18.9168 -3.46925 2.91587 -7.10648 -32.9372 -5.03302e-021 -3.88251e-019 1.21329e-020 -61.644 -36.1147 -51.7372 -15.2862 41.11 -118.704 6.54677 9.62745 -1.04006 18.2663 -2.0427 -12.3723 67.5429 -52.9559 45.7505 -23.6654 30.5677 119.736 -15.112 12.2571 -23.1824 33.524 -26.2948 -2.18346 -35.5187 75.8431 25.6286 -21.6717 28.3651 6.69186 62.1073 -61.0109 43.1852 
-74.8009 75.9349 -23.8155 5.01795 4.48029 138.773 -36.3379 -20.4299 10.2789 2.57813 37.7183 3.44057 14.5432 27.7935 -4.45554 -45.9083 -60.7654 -35.9424 5.17157 9.31303 -1.89957 5.93648 18.3654 -3.51897 2.04531 -6.22104 -31.4822 -5.03302e-021 -3.88251e-019 1.21329e-020 -61.4512 -31.969 -50.1208 -15.1945 40.9261 -118.284 6.54677 9.62745 -1.04006 21.2518 -3.01866 -15.2868 65.6626 -50.7725 43.2464 -23.4095 29.7283 126.077 -16.2746 12.2087 -21.4243 34.0666 -26.4465 -0.623025 -39.2567 74.4862 25.4 -24.5888 29.3583 7.85579 57.9184 -62.5158 36.9755 
-75.6571 77.5243 -25.7383 3.91547 4.58025 137.721 -37.7418 -19.2465 11.4989 2.94913 33.5798 2.84634 12.9277 25.5458 -3.70608 -34.3367 -51.2928 -27.7377 4.67695 9.04495 -1.79438 5.68697 17.868 -3.37451 1.48198 -5.17774 -30.0773 -5.03302e-021 -3.88251e-019 1.21329e-020 -62.0685 -27.5466 -48.5777 -15.098 40.764 -117.842 6.54677 9.62745 -1.04006 23.3429 -3.80038 -17.3163 64.6112 -49.101 41.7253 -22.8008 29.2567 131.289 -16.954 12.0698 -19.7318 34.5802 -26.5227 1.03597 -42.1106 72.6665 25.437 -26.2729 30.0473 8.58342 53.032 -63.5521 30.2804 
-76.7008 79.0855 -27.6631 2.79976 4.60327 136.185 -38.8339 -19.0138 12.6664 3.11659 30.2232 1.74927 11.7166 23.6121 -3.1646 -24.8641 -40.6397 -21.4014 4.09559 8.80587 -1.65613 5.4117 17.4607 -3.15486 1.15434 -4.18156 -28.7138 -5.03302e-021 -3.88251e-019 1.21329e-020 -63.3635 -23.2006 -47.1446 -14.9992 40.6394 -117.412 6.54677 9.62745 -1.04006 24.6336 -4.28512 -18.4203 64.294 -47.7821 40.9642 -22.0679 28.876 135.892 -16.628 11.8858 -18.7248 34.9903 -26.4325 2.25002 -43.4865 70.1503 25.4318 -26.4858 30.6807 8.80548 49.512 -64.4657 25.201 
-77.9256 80.6057 -29.5675 1.77305 4.55261 134.299 -39.4998 -19.7833 13.5058 3.40578 28.1225 0.0555351 10.8919 22.3692 -2.82715 -17.6872 -30.6124 -16.6172 3.71512 8.63666 -1.53916 5.14604 17.1992 -2.95898 0.988456 -3.44346 -27.3567 -5.03302e-021 -3.88251e-019 1.21329e-020 -65.1089 -19.2014 -45.8957 -14.9006 40.5455 -117.013 6.54677 9.62745 -1.04006 25.2728 -4.46117 -18.6962 64.377 -46.4815 40.6451 -21.4328 28.1175 140.203 -14.9462 11.6985 -18.9211 35.1297 -26.1084 2.5815 -43.0597 66.7566 25.2134 -25.1907 31.459 8.52617 48.3056 -65.4516 22.8251 
-79.3402 82.0668 -31.4594 0.918389 4.46828 132.223 -39.7011 -21.415 13.7277 4.07229 27.5211 -1.98759 10.3786 22.1212 -2.67112 -13.0332 -23.4792 -13.1343 3.59334 8.5737 -1.47278 4.86752 17.1303 -2.84968 0.955616 -3.11678 -25.9736 -5.03302e-021 -3.88251e-019 1.21329e-020 -67.0215 -15.6861 -44.9292 -14.8074 40.4612 -116.645 6.54677 9.62745 -1.04006 25.4233 -4.38676 -18.3414 64.4797 -44.8325 40.4706 -21.003 26.5168 144.274 -11.8504 11.4552 -20.4669 34.807 -25.515 1.84323 -40.8899 62.5349 24.714 -22.5473 32.3396 7.76383 49.0247 -66.1215 23.0784 
